<mxfile host="app.diagrams.net" agent="Mozilla/5.0 (Windows NT 10.0; Win64; x64) AppleWebKit/537.36 (KHTML, like Gecko) Chrome/127.0.0.0 Safari/537.36" version="24.7.7">
  <diagram name="Page-1" id="UtVEMyrJcrlOwaQFjmat">
    <mxGraphModel dx="1713" dy="715" grid="0" gridSize="10" guides="1" tooltips="1" connect="1" arrows="1" fold="1" page="0" pageScale="1" pageWidth="827" pageHeight="1169" math="0" shadow="0">
      <root>
        <mxCell id="0" />
        <mxCell id="1" parent="0" />
        <mxCell id="HWBJYcteZKQvOKbNrq4_-14" value="&lt;b&gt;KAFIĆ&lt;/b&gt;" style="rounded=0;whiteSpace=wrap;html=1;labelBackgroundColor=none;" vertex="1" parent="1">
          <mxGeometry x="229" y="303" width="186" height="46" as="geometry" />
        </mxCell>
        <mxCell id="HWBJYcteZKQvOKbNrq4_-136" style="edgeStyle=none;curved=1;rounded=0;orthogonalLoop=1;jettySize=auto;html=1;exitX=0.5;exitY=1;exitDx=0;exitDy=0;fontSize=12;startSize=8;endSize=8;" edge="1" parent="1" source="HWBJYcteZKQvOKbNrq4_-15">
          <mxGeometry relative="1" as="geometry">
            <mxPoint x="-51" y="931.7999267578125" as="targetPoint" />
          </mxGeometry>
        </mxCell>
        <mxCell id="HWBJYcteZKQvOKbNrq4_-15" value="&lt;b&gt;KONOBAR&lt;/b&gt;" style="whiteSpace=wrap;html=1;labelBackgroundColor=none;" vertex="1" parent="1">
          <mxGeometry x="-111" y="414" width="120" height="60" as="geometry" />
        </mxCell>
        <mxCell id="HWBJYcteZKQvOKbNrq4_-143" style="edgeStyle=none;curved=1;rounded=0;orthogonalLoop=1;jettySize=auto;html=1;fontSize=12;startSize=8;endSize=8;" edge="1" parent="1" source="HWBJYcteZKQvOKbNrq4_-16">
          <mxGeometry relative="1" as="geometry">
            <mxPoint x="189" y="931" as="targetPoint" />
          </mxGeometry>
        </mxCell>
        <mxCell id="HWBJYcteZKQvOKbNrq4_-16" value="&lt;b&gt;ADMINISTRATOR&lt;/b&gt;" style="whiteSpace=wrap;html=1;labelBackgroundColor=none;" vertex="1" parent="1">
          <mxGeometry x="129" y="414" width="120" height="60" as="geometry" />
        </mxCell>
        <mxCell id="HWBJYcteZKQvOKbNrq4_-182" value="" style="edgeStyle=none;curved=1;rounded=0;orthogonalLoop=1;jettySize=auto;html=1;fontSize=12;startSize=8;endSize=8;" edge="1" parent="1" source="HWBJYcteZKQvOKbNrq4_-18">
          <mxGeometry relative="1" as="geometry">
            <mxPoint x="426" y="930" as="targetPoint" />
          </mxGeometry>
        </mxCell>
        <mxCell id="HWBJYcteZKQvOKbNrq4_-18" value="&lt;b&gt;VLASNIK KAFIĆA&lt;/b&gt;" style="whiteSpace=wrap;html=1;labelBackgroundColor=none;" vertex="1" parent="1">
          <mxGeometry x="369" y="414" width="120" height="60" as="geometry" />
        </mxCell>
        <mxCell id="HWBJYcteZKQvOKbNrq4_-192" value="" style="edgeStyle=none;curved=1;rounded=0;orthogonalLoop=1;jettySize=auto;html=1;fontSize=12;startSize=8;endSize=8;" edge="1" parent="1" source="HWBJYcteZKQvOKbNrq4_-20">
          <mxGeometry relative="1" as="geometry">
            <mxPoint x="667" y="931" as="targetPoint" />
          </mxGeometry>
        </mxCell>
        <mxCell id="HWBJYcteZKQvOKbNrq4_-20" value="SUSTAV NAPLATE" style="whiteSpace=wrap;html=1;labelBackgroundColor=none;fontStyle=1" vertex="1" parent="1">
          <mxGeometry x="609" y="414" width="120" height="60" as="geometry" />
        </mxCell>
        <mxCell id="HWBJYcteZKQvOKbNrq4_-24" value="" style="endArrow=none;html=1;rounded=0;fontSize=12;startSize=8;endSize=8;edgeStyle=orthogonalEdgeStyle;entryX=0.5;entryY=1;entryDx=0;entryDy=0;exitX=0.5;exitY=0;exitDx=0;exitDy=0;labelBackgroundColor=none;fontColor=default;" edge="1" parent="1" source="HWBJYcteZKQvOKbNrq4_-15" target="HWBJYcteZKQvOKbNrq4_-14">
          <mxGeometry width="50" height="50" relative="1" as="geometry">
            <mxPoint x="284" y="576" as="sourcePoint" />
            <mxPoint x="334" y="526" as="targetPoint" />
            <Array as="points">
              <mxPoint x="-51" y="382" />
              <mxPoint x="322" y="382" />
            </Array>
          </mxGeometry>
        </mxCell>
        <mxCell id="HWBJYcteZKQvOKbNrq4_-26" value="" style="endArrow=none;html=1;rounded=0;fontSize=12;startSize=8;endSize=8;edgeStyle=orthogonalEdgeStyle;entryX=0.5;entryY=1;entryDx=0;entryDy=0;exitX=0.5;exitY=0;exitDx=0;exitDy=0;labelBackgroundColor=none;fontColor=default;" edge="1" parent="1" source="HWBJYcteZKQvOKbNrq4_-20" target="HWBJYcteZKQvOKbNrq4_-14">
          <mxGeometry width="50" height="50" relative="1" as="geometry">
            <mxPoint x="284" y="576" as="sourcePoint" />
            <mxPoint x="334" y="526" as="targetPoint" />
          </mxGeometry>
        </mxCell>
        <mxCell id="HWBJYcteZKQvOKbNrq4_-37" value="" style="shape=partialRectangle;whiteSpace=wrap;html=1;top=0;bottom=0;fillColor=none;labelBackgroundColor=none;" vertex="1" parent="1">
          <mxGeometry x="189" y="382" width="243" height="32" as="geometry" />
        </mxCell>
        <mxCell id="HWBJYcteZKQvOKbNrq4_-39" value="Dodavanje narudžbi" style="rounded=1;whiteSpace=wrap;html=1;labelBackgroundColor=none;" vertex="1" parent="1">
          <mxGeometry x="-32" y="507" width="120" height="60" as="geometry" />
        </mxCell>
        <mxCell id="HWBJYcteZKQvOKbNrq4_-44" value="Ažuriranje sustava&amp;nbsp;&lt;div&gt;narudžbi&lt;/div&gt;" style="rounded=1;html=1;labelBackgroundColor=none;" vertex="1" parent="1">
          <mxGeometry x="-32" y="704" width="120" height="60" as="geometry" />
        </mxCell>
        <mxCell id="HWBJYcteZKQvOKbNrq4_-46" value="Izdavanje računa" style="rounded=1;html=1;labelBackgroundColor=none;" vertex="1" parent="1">
          <mxGeometry x="-32" y="790" width="120" height="60" as="geometry" />
        </mxCell>
        <mxCell id="HWBJYcteZKQvOKbNrq4_-70" value="" style="line;strokeWidth=1;fillColor=none;align=left;verticalAlign=middle;spacingTop=-1;spacingLeft=3;spacingRight=3;rotatable=0;labelPosition=right;points=[];portConstraint=eastwest;labelBackgroundColor=none;" vertex="1" parent="1">
          <mxGeometry x="-69.5" y="470" width="40" height="8" as="geometry" />
        </mxCell>
        <mxCell id="HWBJYcteZKQvOKbNrq4_-132" value="Pregled stolova i narudžbi" style="rounded=1;whiteSpace=wrap;html=1;labelBackgroundColor=none;" vertex="1" parent="1">
          <mxGeometry x="-32" y="601" width="120" height="60" as="geometry" />
        </mxCell>
        <mxCell id="HWBJYcteZKQvOKbNrq4_-144" value="Upravljanje korisnicima" style="whiteSpace=wrap;html=1;rounded=1;labelBackgroundColor=none;" vertex="1" parent="1">
          <mxGeometry x="208" y="507" width="120" height="60" as="geometry" />
        </mxCell>
        <mxCell id="HWBJYcteZKQvOKbNrq4_-146" value="Upravljanje stolovima" style="whiteSpace=wrap;html=1;rounded=1;labelBackgroundColor=none;" vertex="1" parent="1">
          <mxGeometry x="208" y="601" width="120" height="60" as="geometry" />
        </mxCell>
        <mxCell id="HWBJYcteZKQvOKbNrq4_-148" value="Upravljanje menijem" style="whiteSpace=wrap;html=1;rounded=1;labelBackgroundColor=none;" vertex="1" parent="1">
          <mxGeometry x="208" y="704" width="120" height="60" as="geometry" />
        </mxCell>
        <mxCell id="HWBJYcteZKQvOKbNrq4_-159" value="" style="endArrow=none;html=1;rounded=0;fontSize=12;startSize=8;endSize=8;curved=1;entryX=0;entryY=0.5;entryDx=0;entryDy=0;" edge="1" parent="1" target="HWBJYcteZKQvOKbNrq4_-44">
          <mxGeometry width="50" height="50" relative="1" as="geometry">
            <mxPoint x="-51" y="734" as="sourcePoint" />
            <mxPoint x="-12" y="723" as="targetPoint" />
          </mxGeometry>
        </mxCell>
        <mxCell id="HWBJYcteZKQvOKbNrq4_-160" value="" style="endArrow=none;html=1;rounded=0;fontSize=12;startSize=8;endSize=8;curved=1;entryX=0;entryY=0.5;entryDx=0;entryDy=0;" edge="1" parent="1" target="HWBJYcteZKQvOKbNrq4_-132">
          <mxGeometry width="50" height="50" relative="1" as="geometry">
            <mxPoint x="-51" y="631" as="sourcePoint" />
            <mxPoint x="-12" y="617" as="targetPoint" />
          </mxGeometry>
        </mxCell>
        <mxCell id="HWBJYcteZKQvOKbNrq4_-162" value="" style="endArrow=none;html=1;rounded=0;fontSize=12;startSize=8;endSize=8;curved=1;entryX=0;entryY=0.5;entryDx=0;entryDy=0;" edge="1" parent="1" target="HWBJYcteZKQvOKbNrq4_-39">
          <mxGeometry width="50" height="50" relative="1" as="geometry">
            <mxPoint x="-51" y="537" as="sourcePoint" />
            <mxPoint x="-12" y="517" as="targetPoint" />
          </mxGeometry>
        </mxCell>
        <mxCell id="HWBJYcteZKQvOKbNrq4_-164" value="" style="endArrow=none;html=1;rounded=0;fontSize=12;startSize=8;endSize=8;curved=1;entryX=0;entryY=0.5;entryDx=0;entryDy=0;" edge="1" parent="1" target="HWBJYcteZKQvOKbNrq4_-46">
          <mxGeometry width="50" height="50" relative="1" as="geometry">
            <mxPoint x="-51" y="820" as="sourcePoint" />
            <mxPoint x="-15" y="795" as="targetPoint" />
          </mxGeometry>
        </mxCell>
        <mxCell id="HWBJYcteZKQvOKbNrq4_-165" value="" style="endArrow=none;html=1;rounded=0;fontSize=12;startSize=8;endSize=8;curved=1;entryX=0;entryY=0.5;entryDx=0;entryDy=0;" edge="1" parent="1">
          <mxGeometry width="50" height="50" relative="1" as="geometry">
            <mxPoint x="189" y="820" as="sourcePoint" />
            <mxPoint x="208" y="820" as="targetPoint" />
          </mxGeometry>
        </mxCell>
        <mxCell id="HWBJYcteZKQvOKbNrq4_-166" value="" style="endArrow=none;html=1;rounded=0;fontSize=12;startSize=8;endSize=8;curved=1;entryX=0;entryY=0.5;entryDx=0;entryDy=0;" edge="1" parent="1" target="HWBJYcteZKQvOKbNrq4_-148">
          <mxGeometry width="50" height="50" relative="1" as="geometry">
            <mxPoint x="189" y="734" as="sourcePoint" />
            <mxPoint x="224" y="712" as="targetPoint" />
          </mxGeometry>
        </mxCell>
        <mxCell id="HWBJYcteZKQvOKbNrq4_-167" value="" style="endArrow=none;html=1;rounded=0;fontSize=12;startSize=8;endSize=8;curved=1;entryX=0;entryY=0.5;entryDx=0;entryDy=0;" edge="1" parent="1" target="HWBJYcteZKQvOKbNrq4_-146">
          <mxGeometry width="50" height="50" relative="1" as="geometry">
            <mxPoint x="189" y="631" as="sourcePoint" />
            <mxPoint x="224" y="610" as="targetPoint" />
          </mxGeometry>
        </mxCell>
        <mxCell id="HWBJYcteZKQvOKbNrq4_-168" value="" style="endArrow=none;html=1;rounded=0;fontSize=12;startSize=8;endSize=8;curved=1;entryX=0;entryY=0.5;entryDx=0;entryDy=0;" edge="1" parent="1" target="HWBJYcteZKQvOKbNrq4_-144">
          <mxGeometry width="50" height="50" relative="1" as="geometry">
            <mxPoint x="189" y="537" as="sourcePoint" />
            <mxPoint x="221" y="514" as="targetPoint" />
          </mxGeometry>
        </mxCell>
        <mxCell id="HWBJYcteZKQvOKbNrq4_-174" value="Praćenje zaliha" style="whiteSpace=wrap;html=1;rounded=1;labelBackgroundColor=none;" vertex="1" parent="1">
          <mxGeometry x="208" y="790" width="120" height="60" as="geometry" />
        </mxCell>
        <mxCell id="HWBJYcteZKQvOKbNrq4_-176" value="Pregled izvještaja" style="whiteSpace=wrap;html=1;rounded=1;labelBackgroundColor=none;" vertex="1" parent="1">
          <mxGeometry x="448" y="507" width="120" height="60" as="geometry" />
        </mxCell>
        <mxCell id="HWBJYcteZKQvOKbNrq4_-178" value="Upravljanje cijenama" style="whiteSpace=wrap;html=1;rounded=1;labelBackgroundColor=none;" vertex="1" parent="1">
          <mxGeometry x="448" y="601" width="120" height="60" as="geometry" />
        </mxCell>
        <mxCell id="HWBJYcteZKQvOKbNrq4_-180" value="Marketing i promocije" style="whiteSpace=wrap;html=1;rounded=1;labelBackgroundColor=none;" vertex="1" parent="1">
          <mxGeometry x="448" y="704" width="120" height="60" as="geometry" />
        </mxCell>
        <mxCell id="HWBJYcteZKQvOKbNrq4_-183" value="" style="endArrow=none;html=1;rounded=0;fontSize=12;startSize=8;endSize=8;curved=1;entryX=0;entryY=0.5;entryDx=0;entryDy=0;" edge="1" parent="1" target="HWBJYcteZKQvOKbNrq4_-176">
          <mxGeometry width="50" height="50" relative="1" as="geometry">
            <mxPoint x="428" y="537" as="sourcePoint" />
            <mxPoint x="500" y="530" as="targetPoint" />
          </mxGeometry>
        </mxCell>
        <mxCell id="HWBJYcteZKQvOKbNrq4_-184" value="" style="endArrow=none;html=1;rounded=0;fontSize=12;startSize=8;endSize=8;curved=1;entryX=0;entryY=0.5;entryDx=0;entryDy=0;" edge="1" parent="1" target="HWBJYcteZKQvOKbNrq4_-178">
          <mxGeometry width="50" height="50" relative="1" as="geometry">
            <mxPoint x="428" y="631" as="sourcePoint" />
            <mxPoint x="468" y="610" as="targetPoint" />
          </mxGeometry>
        </mxCell>
        <mxCell id="HWBJYcteZKQvOKbNrq4_-185" value="" style="endArrow=none;html=1;rounded=0;fontSize=12;startSize=8;endSize=8;curved=1;entryX=0;entryY=0.5;entryDx=0;entryDy=0;" edge="1" parent="1" target="HWBJYcteZKQvOKbNrq4_-180">
          <mxGeometry width="50" height="50" relative="1" as="geometry">
            <mxPoint x="427" y="734" as="sourcePoint" />
            <mxPoint x="467" y="723" as="targetPoint" />
          </mxGeometry>
        </mxCell>
        <mxCell id="HWBJYcteZKQvOKbNrq4_-186" value="Obrada plaćanja" style="whiteSpace=wrap;html=1;rounded=1;labelBackgroundColor=none;" vertex="1" parent="1">
          <mxGeometry x="688" y="507" width="120" height="60" as="geometry" />
        </mxCell>
        <mxCell id="HWBJYcteZKQvOKbNrq4_-188" value="Izrada računa" style="whiteSpace=wrap;html=1;rounded=1;labelBackgroundColor=none;" vertex="1" parent="1">
          <mxGeometry x="688" y="601" width="120" height="60" as="geometry" />
        </mxCell>
        <mxCell id="HWBJYcteZKQvOKbNrq4_-195" value="" style="endArrow=none;html=1;rounded=0;fontSize=12;startSize=8;endSize=8;curved=1;entryX=0;entryY=0.5;entryDx=0;entryDy=0;" edge="1" parent="1" target="HWBJYcteZKQvOKbNrq4_-186">
          <mxGeometry width="50" height="50" relative="1" as="geometry">
            <mxPoint x="669" y="537" as="sourcePoint" />
            <mxPoint x="655" y="523" as="targetPoint" />
          </mxGeometry>
        </mxCell>
        <mxCell id="HWBJYcteZKQvOKbNrq4_-196" value="" style="endArrow=none;html=1;rounded=0;fontSize=12;startSize=8;endSize=8;curved=1;entryX=0;entryY=0.5;entryDx=0;entryDy=0;" edge="1" parent="1" target="HWBJYcteZKQvOKbNrq4_-188">
          <mxGeometry width="50" height="50" relative="1" as="geometry">
            <mxPoint x="668" y="631" as="sourcePoint" />
            <mxPoint x="682" y="616" as="targetPoint" />
          </mxGeometry>
        </mxCell>
      </root>
    </mxGraphModel>
  </diagram>
</mxfile>
